<?xml version="1.0" encoding="utf-8"?>
<svg xmlns="http://www.w3.org/2000/svg" width="160" height="160" viewBox="0 0 160 160" fill="none">
<g clip-path="url(#clip0_5339_824)">
<path d="M89.2977 66.9805L138.137 18.4215L119.609 0L80.0335 39.348L40.4581 0L21.9302 18.4215L70.7698 66.9805C73.3278 69.5244 76.681 70.7958 80.0335 70.7958C83.3862 70.7958 86.7394 69.5246 89.2977 66.9805ZM160 118.855L120.425 79.5076L160 40.1586L141.472 21.737L92.6325 70.2965C87.5165 75.3837 87.5165 83.6307 92.6325 88.7179L141.472 137.277L160 118.855ZM79.966 119.734L119.541 159.082L138.069 140.66L89.2297 92.1012C84.1128 87.0145 75.8181 87.0145 70.702 92.1012L21.8626 140.66L40.3901 159.082L79.966 119.734ZM67.3672 88.7855C69.8241 86.3427 71.2047 83.0294 71.2047 79.5747C71.2047 76.1201 69.8241 72.8068 67.3672 70.3643L18.5279 21.805L0 40.2266L39.5761 79.5742L0 118.923L18.5279 137.345L67.3672 88.7855Z" fill="#D7ABC5"/>
</g>
<defs>
<clipPath id="clip0_5339_824">
<rect width="160" height="160" fill="white"/>
</clipPath>
</defs>
</svg>