<?xml version="1.0" encoding="utf-8"?>
<svg xmlns="http://www.w3.org/2000/svg" width="160" height="160" viewBox="0 0 160 160" fill="none">
<g clip-path="url(#clip0_5339_810)">
<path d="M79.4997 160.031V132.72C76.7507 132.72 73.9418 132.48 71.1927 132.062L66.8898 159.015C71.0732 159.732 75.3164 160.031 79.4997 160.031ZM92.0499 159.075C96.2333 158.417 100.357 157.461 104.361 156.146L95.9345 130.15C93.3049 130.986 90.5558 131.644 87.8067 132.062L92.0499 159.075ZM54.6385 156.146L63.065 130.209C60.4355 129.373 57.8657 128.297 55.3557 127.042L42.925 151.365C46.6901 153.218 50.6344 154.832 54.6385 156.146ZM116.015 151.365C119.78 149.453 123.366 147.242 126.772 144.792L110.636 122.739C108.425 124.353 106.034 125.847 103.524 127.042L116.015 151.365ZM32.1678 144.732L48.3037 122.679C46.0924 121.066 43.941 119.273 41.9688 117.301L22.6057 136.604C25.5939 139.532 28.8211 142.282 32.1678 144.732ZM136.274 136.724L136.454 136.544C139.442 133.616 142.191 130.389 144.641 127.042L122.529 110.966C120.915 113.177 119.063 115.329 117.15 117.241L116.851 117.54L126.174 126.325L136.274 136.724ZM14.4183 126.982L36.5304 110.906C34.9168 108.695 33.4228 106.304 32.1678 103.854L7.78462 116.225C9.69702 119.99 11.9082 123.576 14.4183 126.982ZM151.215 116.285C153.127 112.58 154.741 108.635 156.056 104.631L129.999 96.2643C129.162 98.8939 128.087 101.464 126.832 103.914L151.215 116.285ZM2.94384 104.631L29.0003 96.2046C28.1637 93.575 27.5063 90.8857 27.0879 88.1366L0.0154765 92.3797C0.672865 96.5034 1.68883 100.627 2.94384 104.631ZM158.984 92.4395C159.641 88.3159 160 84.0727 160 79.8894H132.629C132.629 82.6384 132.39 85.4473 131.971 88.1964L158.984 92.4395ZM26.4305 79.8296C26.4305 77.0805 26.6696 74.2717 27.0879 71.5226L0.0154765 67.2794C-0.641912 71.4031 -0.940726 75.6462 -1.00049 79.8296H26.4305ZM131.971 71.5824L159.044 67.3392C158.386 63.2156 157.43 59.092 156.115 55.0879L130.059 63.4546C130.896 66.144 131.553 68.8333 131.971 71.5824ZM29.0003 63.4546C29.837 60.8251 30.9127 58.2553 32.1678 55.805L7.78462 43.4342C5.87221 47.1394 4.25862 51.0838 2.94384 55.0879L29.0003 63.4546ZM126.891 55.8648L151.334 43.4939C149.422 39.7289 147.211 36.1431 144.701 32.7367L122.529 48.8128C124.142 51.024 125.636 53.4145 126.891 55.8648ZM36.5304 48.753C38.144 46.5418 39.9967 44.3904 41.9688 42.4182L42.0286 42.3584L22.6655 23.0551L22.6057 23.1149C19.6176 26.103 16.8685 29.2704 14.4183 32.6769L36.5304 48.753ZM117.15 42.5377L123.007 36.6212L136.454 23.2344L136.394 23.1746C133.406 20.2463 130.238 17.4972 126.891 15.0469L110.756 37.0993C112.967 38.7129 115.118 40.5058 117.031 42.478L117.15 42.5377ZM48.3634 36.9798C50.5746 35.3662 52.9651 33.9319 55.4752 32.6769L43.0446 8.35351C39.2795 10.2659 35.6938 12.4771 32.2873 14.9274L48.3634 36.9798ZM103.704 32.7367L116.194 8.41328C112.429 6.50087 108.544 4.88728 104.54 3.57251L96.054 29.5095C98.6238 30.4059 101.194 31.4816 103.704 32.7367ZM63.1846 29.5095C65.8141 28.6728 68.5632 28.0154 71.3123 27.5971L67.0691 0.644137C62.9455 1.30153 58.7621 2.25773 54.758 3.57251L63.1846 29.5095ZM87.8665 27.5971L92.1694 0.644137C88.0458 -0.0132512 83.8027 -0.371826 79.6193 -0.371826V26.9397C82.3683 26.9397 85.1772 27.1787 87.8665 27.5971Z" fill="#D7ABC5"/>
<path d="M79.5 133.974V106.543C77.1692 106.543 74.8982 106.245 72.6273 105.647L65.4558 132.122C70.0575 133.317 74.7787 133.974 79.5 133.974ZM93.5442 132.122C98.1459 130.927 102.509 129.134 106.632 126.743L92.7673 103.017C90.7951 104.153 88.6437 105.049 86.4324 105.647L93.5442 132.122ZM52.4275 126.743L66.2924 103.017C64.3203 101.882 62.4676 100.448 60.7943 98.834L60.5552 98.5949L51.8299 107.739L41.0726 118.078L41.2519 118.257C44.5986 121.544 48.3636 124.412 52.4275 126.743ZM117.808 118.257C121.155 114.91 124.083 111.205 126.414 107.141L102.449 93.3956C101.313 95.3678 99.879 97.1606 98.2057 98.834L117.808 118.257ZM32.5863 107.081L56.5511 93.3956C55.4156 91.4234 54.5192 89.3317 53.9216 87.1205L27.2077 94.1725C28.4029 98.6547 30.2556 103.017 32.5863 107.081ZM131.852 94.2323C133.047 89.6903 133.705 85.0288 133.705 80.3673H106.035C106.035 82.6383 105.736 84.9691 105.138 87.1803L131.852 94.2323ZM53.0849 80.3076C53.0849 78.0366 53.3837 75.7059 53.9813 73.4946L27.2077 66.4427C26.0124 70.9846 25.355 75.6461 25.355 80.3076H53.0849ZM105.078 73.5544L131.852 66.5024C130.657 61.9605 128.804 57.5978 126.473 53.5339L102.509 67.2196C103.584 69.2515 104.481 71.3432 105.078 73.5544ZM56.6109 67.2196C57.7464 65.3072 59.1209 63.4545 60.7943 61.8409L60.854 61.7812L50.9334 51.9801L41.4312 42.2388L41.2519 42.4181C37.9052 45.705 35.0366 49.4701 32.6461 53.4742L56.6109 67.2196ZM98.2057 61.8409L108.007 52.0996L118.047 42.6571L117.808 42.4181C114.461 39.0714 110.696 36.2625 106.632 33.872L92.7673 57.5978C94.7394 58.7333 96.5323 60.1078 98.2057 61.7214V61.8409ZM66.2924 57.5978C68.2646 56.4623 70.4161 55.5659 72.6273 54.9682L65.5753 28.4934C60.9736 29.6886 56.6109 31.4815 52.4873 33.872L66.2924 57.5978ZM86.3727 55.028L93.5442 28.5532C89.0022 27.3579 84.281 26.7005 79.5597 26.7005V54.1316C81.8307 54.1316 84.1615 54.4304 86.3727 55.028Z" fill="#D7ABC5"/>
</g>
<defs>
<clipPath id="clip0_5339_810">
<rect width="160" height="160" fill="white"/>
</clipPath>
</defs>
</svg>