<?xml version="1.0" encoding="utf-8"?>
<svg xmlns="http://www.w3.org/2000/svg" width="160" height="160" viewBox="0 0 160 160" fill="none">
<g clip-path="url(#clip0_5341_1550)">
<path d="M14.396 8.10454V10.4787H145.604V8.10454V5.73038H14.396V8.10454Z" fill="#D7ABC5"/>
<path d="M154.269 145.604V14.3961H151.895H149.521V145.604H151.895H154.269Z" fill="#D7ABC5"/>
<path d="M14.396 151.896V154.27H145.604V151.896V149.521H14.396V151.896Z" fill="#D7ABC5"/>
<path d="M10.4788 145.604V14.3961H8.10463H5.73047V145.604H8.10463H10.4788Z" fill="#D7ABC5"/>
<path d="M3 13.2089H5.73029H8.10445H10.4786H13.2089V10.4786V8.10445V5.73029V3H3V13.2089Z" fill="#D7ABC5"/>
<path d="M146.791 3V5.73029V8.10445V10.4786V13.2089H149.521H151.895H154.27H157V3H146.791Z" fill="#D7ABC5"/>
<path d="M151.895 146.791H149.521H146.791V149.521V151.895V154.27V157H157V146.791H154.27H151.895Z" fill="#D7ABC5"/>
<path d="M8.10445 146.791H5.73029H3V157H13.2089V154.27V151.895V149.521V146.791H10.4786H8.10445Z" fill="#D7ABC5"/>
<path d="M77.3589 41.2477L59.1965 59.41L41.0342 77.5724L64.3603 123.346L71.7202 122.183C73.8451 122.04 75.9581 121.969 78.0355 121.969C98.1565 121.969 115.524 128.178 118.242 129.199L123.204 124.237L94.5003 95.5329C89.1228 100.542 82.0953 100.436 76.8365 95.1887C71.8389 90.1792 71.8389 82.0477 76.8365 77.0382C81.846 72.0287 89.9894 72.0406 94.987 77.0382C100.412 82.4632 99.3911 90.108 95.2719 94.6307L124.047 123.406L129.412 118.04C128.178 114.74 119.298 89.8468 123.156 64.5738L77.3826 41.2477H77.3589Z" fill="#D7ABC5"/>
<path d="M25.0679 61.3807L40.2981 76.6228L58.3536 58.5673L76.3972 40.5237L61.167 25.2816L25.0679 61.3807Z" fill="#D7ABC5"/>
</g>
<defs>
<clipPath id="clip0_5341_1550">
<rect width="154" height="154" fill="white" transform="translate(3 3)"/>
</clipPath>
</defs>
</svg>