<?xml version="1.0" encoding="utf-8"?>
<svg xmlns="http://www.w3.org/2000/svg" width="160" height="160" viewBox="0 0 160 160" fill="none">
<g clip-path="url(#clip0_5339_817)">
<g clip-path="url(#clip1_5339_817)">
<path fill-rule="evenodd" clip-rule="evenodd" d="M34.5601 84.672L35.3281 86.016C37.8241 90.368 43.3921 91.84 47.7441 89.344L86.1441 67.136L88.4481 70.848L89.9841 73.472L90.2401 74.624V114.176C90.2401 119.168 94.3361 123.264 99.3281 123.264H100.864C105.856 123.264 109.952 119.168 109.952 114.176V51.84C109.952 47.168 107.072 43.136 102.976 41.408C99.2001 39.424 94.7201 39.488 91.0081 41.6L37.9521 72.256C33.6001 74.752 32.1281 80.32 34.6241 84.672H34.5601Z" fill="#D7ABC5"/>
<path fill-rule="evenodd" clip-rule="evenodd" d="M63.36 66.176C67.328 65.6 76.096 66.368 79.744 67.2C83.392 68.032 86.656 70.656 86.656 70.656C86.656 70.656 86.528 70.592 86.336 70.528C89.088 71.744 90.24 74.56 90.24 74.56C89.024 61.12 79.552 51.072 64 57.152L38.912 71.616C38.784 71.68 41.984 69.248 63.424 66.112L63.36 66.176ZM80.896 70.4C80.256 70.592 79.552 70.912 78.784 71.296C79.488 70.912 80.192 70.592 80.896 70.4Z" fill="#D7ABC5"/>
<path fill-rule="evenodd" clip-rule="evenodd" d="M52.4158 107.648L66.4958 99.648L67.3918 99.136C67.3918 99.136 68.9278 98.304 70.2078 99.136C71.4878 99.968 71.4238 101.056 71.4238 101.056L71.6158 118.912C71.6158 118.912 71.1038 120.384 70.2078 120.896C69.3118 121.408 68.7358 121.536 67.3278 121.088C62.5278 119.488 54.0158 116.032 51.3918 111.36C50.9438 110.592 51.0718 109.696 51.2638 109.248C51.5198 108.288 52.0958 107.84 52.4158 107.648Z" fill="#D7ABC5"/>
<path d="M80 160C57.92 160 37.888 151.04 23.424 136.576C8.96 122.112 0 102.08 0 80C0 57.92 8.96 37.888 23.424 23.424C37.888 8.96 57.92 0 80 0C102.08 0 122.112 8.96 136.576 23.424C151.04 37.888 160 57.92 160 80C160 102.08 151.04 122.112 136.576 136.576C122.112 151.04 102.08 160 80 160ZM28.8 131.2C41.92 144.32 60.032 152.384 80 152.384C100.032 152.384 118.08 144.256 131.2 131.2C144.32 118.08 152.384 99.968 152.384 80C152.384 59.968 144.256 41.92 131.2 28.8C118.08 15.68 99.968 7.616 80 7.616C59.968 7.616 41.92 15.744 28.8 28.8C15.68 41.92 7.616 60.032 7.616 80C7.616 100.032 15.744 118.08 28.8 131.2Z" fill="#D7ABC5"/>
<path fill-rule="evenodd" clip-rule="evenodd" d="M33.3438 80.384C33.3438 80.384 32.5758 76.288 36.7358 72.96C37.2478 72.576 37.8238 72.192 38.4638 71.872C44.4798 68.352 59.3918 66.752 63.3598 66.176C67.3278 65.6 76.0958 66.368 79.7438 67.2C83.3918 68.032 86.6558 70.656 86.6558 70.656C86.6558 70.656 82.8798 68.992 78.8478 71.296C74.8158 73.6 47.7438 89.28 47.7438 89.28C47.7438 89.28 44.6718 90.88 42.5598 90.496C40.3838 90.048 38.0158 89.792 35.9678 86.976C35.5838 86.336 35.3278 86.016 34.8158 85.12L33.9838 83.392L33.5358 81.792L33.4078 80.384H33.3438Z" fill="#D7ABC5"/>
</g>
</g>
<defs>
<clipPath id="clip0_5339_817">
<rect width="160" height="160" fill="white"/>
</clipPath>
<clipPath id="clip1_5339_817">
<rect width="160" height="160" fill="white"/>
</clipPath>
</defs>
</svg>